<?xml version="1.0" encoding="UTF-8" standalone="no"?>
<svg
   width="24"
   height="24"
   viewBox="0 0 100 100"
   version="1.1"
   id="svg21"
   sodipodi:docname="github.svg"
   inkscape:version="1.2 (56b05e47e7, 2022-06-09, custom)"
   xmlns:inkscape="http://www.inkscape.org/namespaces/inkscape"
   xmlns:sodipodi="http://sodipodi.sourceforge.net/DTD/sodipodi-0.dtd"
   xmlns="http://www.w3.org/2000/svg"
   xmlns:svg="http://www.w3.org/2000/svg">
  <defs
     id="defs25" />
  <sodipodi:namedview
     id="namedview23"
     pagecolor="#ffffff"
     bordercolor="#000000"
     borderopacity="0.25"
     inkscape:showpageshadow="2"
     inkscape:pageopacity="0.0"
     inkscape:pagecheckerboard="0"
     inkscape:deskcolor="#d1d1d1"
     showgrid="false"
     inkscape:zoom="24.041631"
     inkscape:cx="31.195887"
     inkscape:cy="13.539015"
     inkscape:window-width="1866"
     inkscape:window-height="1016"
     inkscape:window-x="54"
     inkscape:window-y="27"
     inkscape:window-maximized="1"
     inkscape:current-layer="svg21" />
  <path
     fill="#ffffff"
     d="m 33.444571,78.918028 c 0,0.400698 -0.460803,0.721256 -1.041814,0.721256 -0.661152,0.06011 -1.121954,-0.260454 -1.121954,-0.721256 0,-0.400698 0.460802,-0.721257 1.041814,-0.721257 0.601047,-0.06011 1.121954,0.260454 1.121954,0.721257 z m -6.230853,-0.90157 c -0.140243,0.400697 0.260454,0.8615 0.861502,0.98171 0.520907,0.200348 1.121954,0 1.242163,-0.400699 0.120209,-0.400698 -0.260454,-0.8615 -0.861501,-1.041814 -0.520907,-0.140244 -1.101919,0.06011 -1.242164,0.460803 z m 8.855424,-0.340593 c -0.581012,0.140243 -0.981709,0.520906 -0.921605,0.981709 0.06011,0.400699 0.581012,0.661152 1.182059,0.520908 0.581012,-0.140245 0.981709,-0.520908 0.921605,-0.921606 -0.06011,-0.380662 -0.601047,-0.641116 -1.182059,-0.581011 z M 49.252103,0.90214987 c -27.788399,0 -49.04542121,21.09674413 -49.04542121,48.88514113 0,22.218698 13.98435621,41.231813 33.95914521,47.923468 2.564467,0.460802 3.466037,-1.121954 3.466037,-2.424222 0,-1.242164 -0.06011,-8.094098 -0.06011,-12.301425 0,0 -14.024426,3.005234 -16.969555,-5.970399 0,0 -2.283978,-5.830155 -5.5697,-7.332771 0,0 -4.587991,-3.145478 0.320558,-3.085374 0,0 4.988688,0.400698 7.733469,5.169003 4.387641,7.733468 11.740448,5.509596 14.605437,4.187292 0.460803,-3.205583 1.763071,-5.429455 3.205583,-6.751759 -11.199502,-1.242163 -22.499182,-2.86499 -22.499182,-22.138558 0,-5.509596 1.522652,-8.274411 4.728235,-11.800552 -0.520908,-1.302268 -2.223874,-6.67162 0.520907,-13.603694 4.187292,-1.302268 13.824077,5.409422 13.824077,5.409422 4.006978,-1.121954 8.314481,-1.702967 12.581913,-1.702967 4.267433,0 8.574935,0.581013 12.581914,1.702967 0,0 9.636784,-6.731725 13.824077,-5.409422 2.74478,6.952108 1.041814,12.301426 0.520908,13.603694 3.205582,3.546176 5.169002,6.310991 5.169002,11.800552 0,19.333673 -11.800553,20.87636 -23.000059,22.138558 1.843211,1.582757 3.405933,4.587991 3.405933,9.296192 0,6.751759 -0.06011,15.10631 -0.06011,16.749171 0,1.302268 0.921605,2.885024 3.466036,2.424222 20.034897,-6.651585 33.618556,-25.6647 33.618556,-47.883398 0,-27.788397 -22.539256,-48.88514113 -50.327654,-48.88514113 z M 19.680599,70.0025 c -0.260454,0.200349 -0.200349,0.661151 0.140244,1.041815 0.320559,0.320558 0.781361,0.460802 1.041814,0.200348 0.260454,-0.200348 0.200349,-0.661151 -0.140244,-1.041814 C 20.401855,69.88229 19.941052,69.742047 19.680599,70.0025 Z M 17.51683,68.379673 c -0.140243,0.260454 0.06011,0.581013 0.460803,0.781361 0.320558,0.200349 0.721256,0.140245 0.861501,-0.140244 0.140244,-0.260454 -0.06011,-0.581011 -0.460804,-0.781361 -0.400697,-0.120209 -0.721255,-0.06011 -0.8615,0.140244 z m 6.491305,7.132422 c -0.320557,0.260454 -0.200348,0.861502 0.260454,1.242165 0.460803,0.460802 1.041814,0.520907 1.302268,0.200348 0.260454,-0.260453 0.140245,-0.8615 -0.260454,-1.242163 -0.440766,-0.460803 -1.041814,-0.520907 -1.302268,-0.20035 z m -2.283977,-2.945129 c -0.320558,0.20035 -0.320558,0.721257 0,1.182059 0.320558,0.460803 0.8615,0.661152 1.121954,0.460803 0.320558,-0.260453 0.320558,-0.781361 0,-1.242164 -0.280488,-0.460802 -0.801396,-0.661152 -1.121954,-0.400698 z"
     id="path19"
     style="fill:#ffffff;stroke-width:0.0445003" />
</svg>
