<?xml version="1.0" encoding="UTF-8" standalone="no"?>
<svg
   width="23.70512"
   height="23.70512"
   viewBox="0 0 98.771334 98.771334"
   version="1.1"
   id="svg23"
   sodipodi:docname="javascript.svg"
   inkscape:version="1.2.1 (9c6d41e410, 2022-07-14)"
   xmlns:inkscape="http://www.inkscape.org/namespaces/inkscape"
   xmlns:sodipodi="http://sodipodi.sourceforge.net/DTD/sodipodi-0.dtd"
   xmlns="http://www.w3.org/2000/svg"
   xmlns:svg="http://www.w3.org/2000/svg">
  <defs
     id="defs27" />
  <sodipodi:namedview
     id="namedview22"
     pagecolor="#ffffff"
     bordercolor="#000000"
     borderopacity="0.25"
     inkscape:showpageshadow="2"
     inkscape:pageopacity="0.0"
     inkscape:pagecheckerboard="0"
     inkscape:deskcolor="#d1d1d1"
     showgrid="false"
     inkscape:zoom="24.041631"
     inkscape:cx="11.188925"
     inkscape:cy="12.43676"
     inkscape:window-width="1920"
     inkscape:window-height="1043"
     inkscape:window-x="1920"
     inkscape:window-y="0"
     inkscape:window-maximized="1"
     inkscape:current-layer="svg23" />
  <path
     fill="#ffffff"
     d="M 88.188689,0 H 10.582643 C 4.7401426,0 0,4.7401422 0,10.582643 v 77.606051 c 0,5.842497 4.7401426,10.58264 10.582643,10.58264 h 77.606046 c 5.842502,0 10.582645,-4.740143 10.582645,-10.58264 V 10.582643 C 98.771334,4.7401422 94.031191,0 88.188689,0 Z m -34.43768,77.032823 c 0,9.612572 -5.644076,13.999951 -13.867673,13.999951 -7.429897,0 -11.729095,-3.836205 -13.933813,-8.488157 l 7.562181,-4.563767 c 1.455113,2.579516 2.777943,4.762192 5.974784,4.762192 3.04251,0 4.982661,-1.190551 4.982661,-5.842505 V 45.351035 h 9.28186 z m 21.958984,13.999951 c -8.620445,0 -14.198379,-4.100769 -16.910182,-9.480283 l 7.56218,-4.365341 c 1.984246,3.240939 4.585813,5.64408 9.149577,5.64408 3.836209,0 6.305492,-1.918103 6.305492,-4.585816 0,-3.174792 -2.513378,-4.299194 -6.768483,-6.173208 L 72.733625,71.08009 C 66.031284,68.236001 61.599802,64.642311 61.599802,57.080131 c 0,-6.966906 5.313369,-12.258228 13.581059,-12.258228 5.908642,0 10.141699,2.050387 13.184213,7.429897 l -7.231476,4.629906 c -1.587397,-2.844084 -3.307076,-3.96849 -5.974784,-3.96849 -2.711803,0 -4.431483,1.719679 -4.431483,3.96849 0,2.777944 1.71968,3.902351 5.710219,5.644077 l 2.314953,0.992123 c 7.892888,3.373217 12.324374,6.834623 12.324374,14.59523 0,8.333834 -6.570062,12.919638 -15.366884,12.919638 z"
     id="path21"
     style="fill:#6c757d;stroke-width:0.00944691;fill-opacity:1" />
</svg>
