<?xml version="1.0" encoding="UTF-8" standalone="no"?>
<svg
   width="21.016861"
   height="23.70512"
   viewBox="0 0 87.570254 98.771334"
   version="1.1"
   id="svg23"
   sodipodi:docname="nodeJs.svg"
   inkscape:version="1.2.1 (9c6d41e410, 2022-07-14)"
   xmlns:inkscape="http://www.inkscape.org/namespaces/inkscape"
   xmlns:sodipodi="http://sodipodi.sourceforge.net/DTD/sodipodi-0.dtd"
   xmlns="http://www.w3.org/2000/svg"
   xmlns:svg="http://www.w3.org/2000/svg">
  <defs
     id="defs27" />
  <sodipodi:namedview
     id="namedview22"
     pagecolor="#ffffff"
     bordercolor="#000000"
     borderopacity="0.25"
     inkscape:showpageshadow="2"
     inkscape:pageopacity="0.0"
     inkscape:pagecheckerboard="0"
     inkscape:deskcolor="#d1d1d1"
     showgrid="false"
     inkscape:zoom="24.041631"
     inkscape:cx="6.3223664"
     inkscape:cy="13.476623"
     inkscape:window-width="1920"
     inkscape:window-height="1043"
     inkscape:window-x="1920"
     inkscape:window-y="0"
     inkscape:window-maximized="1"
     inkscape:current-layer="svg23" />
  <path
     fill="#ffffff"
     d="m 43.765529,98.771334 c -1.313162,0 -2.645923,-0.352789 -3.802289,-1.019173 L 27.870391,90.598366 c -1.803148,-1.019166 -0.921174,-1.371956 -0.33319,-1.567951 2.41073,-0.842775 2.900715,-1.019173 5.468241,-2.48913 0.274391,-0.156794 0.627181,-0.09799 0.901573,0.0784 l 9.290131,5.50744 c 0.33319,0.195996 0.803576,0.195996 1.117167,0 l 36.20015,-20.892989 c 0.333192,-0.195996 0.548785,-0.587984 0.548785,-0.979973 v -41.78599 c 0,-0.411588 -0.215593,-0.783977 -0.568382,-0.999571 L 44.314313,6.5952085 c -0.33319,-0.1959943 -0.783977,-0.1959943 -1.117167,0 L 7.0361957,27.488202 C 6.6834059,27.684196 6.4678122,28.076185 6.4678122,28.487773 V 70.25416 c 0,0.391989 0.2155937,0.783977 0.5683835,0.960369 l 9.9173123,5.72304 c 5.389843,2.685119 8.682548,-0.470388 8.682548,-3.665096 V 32.03527 c 0,-0.587983 0.470386,-1.03877 1.058369,-1.03877 h 4.586267 c 0.568383,0 1.058369,0.450787 1.058369,1.03877 v 41.2568 c 0,7.173392 -3.919886,11.289273 -10.720889,11.289273 -2.097139,0 -3.743491,0 -8.329758,-2.27353 L 3.8022896,76.839568 C 1.4503579,75.48721 0,72.958878 0,70.234561 V 28.468173 C 0,25.763452 1.4503579,23.215526 3.8022896,21.863165 L 39.96324,0.97017185 c 2.293133,-1.29356247 5.331045,-1.29356247 7.604579,0 L 83.767971,21.882765 c 2.351927,1.352361 3.802286,3.880687 3.802286,6.605008 V 70.25416 c 0,2.704718 -1.450359,5.23305 -3.802286,6.605005 L 47.567819,97.752161 c -1.156367,0.666384 -2.469528,1.019173 -3.80229,1.019173 z M 72.988281,57.592928 c 0,-7.820173 -5.291847,-9.897713 -16.404724,-11.36767 -11.250074,-1.489557 -12.386841,-2.253935 -12.386841,-4.880259 0,-2.175537 0.960373,-5.076252 9.290131,-5.076252 7.428184,0 10.172105,1.607153 11.308872,6.624607 0.098,0.470387 0.529184,0.823176 1.01917,0.823176 h 4.703863 c 0.293992,0 0.568384,-0.117596 0.764375,-0.333189 0.195996,-0.215594 0.293997,-0.509586 0.274392,-0.803578 -0.725176,-8.643348 -6.467809,-12.661232 -18.070672,-12.661232 -10.3289,0 -16.483121,4.351074 -16.483121,11.661662 0,7.91817 6.134621,10.113306 16.032334,11.093277 11.857656,1.156367 12.778829,2.900716 12.778829,5.233049 0,4.037482 -3.253506,5.762232 -10.877684,5.762232 -9.584122,0 -11.681261,-2.41073 -12.386841,-7.173392 -0.0784,-0.509585 -0.509585,-0.881974 -1.03877,-0.881974 H 36.82733 c -0.587982,0 -1.038769,0.470386 -1.038769,1.03877 0,6.095423 3.312303,13.366812 19.168243,13.366812 11.446068,-0.0196 18.031477,-4.547068 18.031477,-12.426039 z"
     id="path21"
     style="fill:#6c757d;stroke-width:0.0083981;fill-opacity:1" />
</svg>
