<?xml version="1.0" encoding="UTF-8" standalone="no"?>
<svg
   width="27.090118"
   height="23.70512"
   viewBox="0 0 112.87549 98.771334"
   version="1.1"
   id="svg23"
   sodipodi:docname="react.svg"
   inkscape:version="1.2.1 (9c6d41e410, 2022-07-14)"
   xmlns:inkscape="http://www.inkscape.org/namespaces/inkscape"
   xmlns:sodipodi="http://sodipodi.sourceforge.net/DTD/sodipodi-0.dtd"
   xmlns="http://www.w3.org/2000/svg"
   xmlns:svg="http://www.w3.org/2000/svg">
  <defs
     id="defs27" />
  <sodipodi:namedview
     id="namedview22"
     pagecolor="#ffffff"
     bordercolor="#000000"
     borderopacity="0.25"
     inkscape:showpageshadow="2"
     inkscape:pageopacity="0.0"
     inkscape:pagecheckerboard="0"
     inkscape:deskcolor="#d1d1d1"
     showgrid="false"
     inkscape:zoom="17"
     inkscape:cx="17.176471"
     inkscape:cy="17.941176"
     inkscape:window-width="1920"
     inkscape:window-height="1043"
     inkscape:window-x="1920"
     inkscape:window-y="0"
     inkscape:window-maximized="1"
     inkscape:current-layer="svg23" />
  <path
     fill="#ffffff"
     d="M 92.196354,32.008027 C 91.005866,31.611199 89.815385,31.236418 88.624897,30.883681 88.823316,30.06798 88.999681,29.252278 89.176053,28.436576 91.887705,15.297163 90.10198,4.7371327 84.083425,1.253865 78.285331,-2.0750805 68.827593,1.3861408 59.259635,9.7195262 58.311657,10.535228 57.385725,11.395022 56.503885,12.254816 55.908644,11.68162 55.291356,11.108424 54.674068,10.557274 44.64314,1.6506932 34.590166,-2.0971265 28.571609,1.4081868 22.795559,4.7591787 21.075971,14.701921 23.501031,27.135862 c 0.242506,1.234576 0.507057,2.447106 0.815702,3.681681 -1.410944,0.396829 -2.799842,0.837748 -4.100555,1.300714 C 8.4436162,36.196766 0,42.634197 0,49.292087 c 0,6.87835 8.9947662,13.778744 21.230293,17.967488 0.99207,0.33069 1.98414,0.661379 2.998256,0.947981 -0.330691,1.322759 -0.617288,2.623469 -0.881841,3.968275 -2.314829,12.23553 -0.507057,21.935772 5.268993,25.264715 5.952419,3.439174 15.9613,-0.08818 25.70563,-8.619984 0.77161,-0.683426 1.543221,-1.3889 2.31483,-2.138462 0.970024,0.947974 1.98414,1.85186 2.998255,2.733699 9.435684,8.112929 18.761145,11.397781 24.515144,8.068834 5.95242,-3.439173 7.89247,-13.866929 5.379223,-26.565425 -0.198412,-0.970021 -0.418872,-1.96209 -0.661379,-2.976206 0.705474,-0.198412 1.3889,-0.418872 2.072327,-0.639332 12.720539,-4.210792 21.935759,-11.023003 21.935759,-18.011583 0,-6.679936 -8.68611,-13.161459 -20.679136,-17.28406 z M 62.368119,13.290977 C 70.569231,6.1480763 78.219188,3.3482344 81.702456,5.3544199 85.428231,7.492881 86.861219,16.134911 84.524345,27.488598 84.37002,28.238162 84.215703,28.96568 84.01729,29.693197 79.123075,28.590898 74.162724,27.797242 69.18033,27.356322 66.314353,23.255768 63.183822,19.33158 59.788739,15.649899 c 0.859793,-0.815702 1.697541,-1.587311 2.57938,-2.358922 z M 36.860904,60.733956 c 1.124346,1.918003 2.270737,3.836005 3.483267,5.709915 -3.439175,-0.37478 -6.856304,-0.925929 -10.229342,-1.65345 0.970024,-3.174626 2.182554,-6.459474 3.593497,-9.810465 1.014116,1.940043 2.050278,3.858045 3.152578,5.754 z M 30.180967,34.212627 c 3.174624,-0.705472 6.547661,-1.278668 10.052974,-1.719588 -1.168438,1.829817 -2.31483,3.703727 -3.395083,5.599683 -1.080254,1.873909 -2.138462,3.791911 -3.130532,5.731959 -1.388897,-3.284854 -2.557335,-6.503569 -3.527359,-9.612054 z m 6.040603,15.18969 c 1.455035,-3.042347 3.042347,-6.018556 4.717843,-8.950673 1.675496,-2.932118 3.483267,-5.776051 5.379222,-8.575892 3.3069,-0.242507 6.679937,-0.374783 10.119112,-0.374783 3.439176,0 6.834259,0.132276 10.119112,0.374783 1.87391,2.777795 3.659635,5.621728 5.357177,8.5318 1.697543,2.910071 3.284852,5.88628 4.783982,8.906581 -1.477083,3.042347 -3.064391,6.040601 -4.761934,8.994766 -1.675495,2.932119 -3.461223,5.776048 -5.335133,8.597939 -3.284853,0.242507 -6.701982,0.352737 -10.163204,0.352737 -3.461221,0 -6.812212,-0.11023 -10.052974,-0.308642 -1.918001,-2.799844 -3.725772,-5.665828 -5.423314,-8.597939 -1.697542,-2.932118 -3.262808,-5.908331 -4.739889,-8.950677 z m 39.815069,11.287552 c 1.124346,-1.94005 2.182549,-3.90214 3.218713,-5.886285 1.410941,3.196673 2.645516,6.437434 3.725775,9.766377 -3.417133,0.771609 -6.878353,1.366853 -10.361617,1.763681 1.190481,-1.851863 2.31483,-3.747818 3.417129,-5.643773 z m 3.174618,-16.865188 c -1.036156,-1.940048 -2.094367,-3.880095 -3.196666,-5.776051 -1.080251,-1.87391 -2.2046,-3.725774 -3.37304,-5.555591 3.549405,0.44092 6.944491,1.036162 10.119116,1.76368 -1.014116,3.262807 -2.204604,6.43743 -3.54941,9.567962 z M 56.48184,19.022936 c 2.314829,2.513244 4.497382,5.158763 6.525613,7.892466 -4.365106,-0.198413 -8.752259,-0.198413 -13.117366,0 2.160507,-2.843933 4.387153,-5.489452 6.591753,-7.892466 z M 30.908485,5.5087424 c 3.703727,-2.160508 11.926883,0.9259315 20.590959,8.5979366 0.55115,0.485012 1.1023,1.014116 1.675496,1.54322 -3.41713,3.681681 -6.569706,7.605869 -9.457732,11.706423 -4.982395,0.44092 -9.920698,1.21253 -14.814908,2.292784 C 28.615701,28.52476 28.373196,27.378368 28.13069,26.231976 26.058366,15.561715 27.425218,7.514927 30.908485,5.5087424 Z M 25.507216,63.621987 C 24.581284,63.357433 23.677399,63.070831 22.773512,62.762188 18.077716,61.285105 12.742585,58.948231 8.8845356,55.883843 6.6578904,54.340617 5.158763,51.959656 4.7398888,49.292087 c 0,-4.034417 6.9665352,-9.19318 17.0195082,-12.698493 1.256622,-0.44092 2.53529,-0.837748 3.813957,-1.21253 1.499128,4.783981 3.3069,9.479778 5.401269,14.021253 -2.116415,4.607611 -3.946233,9.369549 -5.467407,14.21967 z m 25.705631,21.605078 c -3.63759,3.328943 -7.848375,5.974467 -12.433942,7.782232 -2.447105,1.168441 -5.268992,1.27867 -7.782236,0.286602 -3.505313,-2.028233 -4.960349,-9.810472 -2.97621,-20.282317 0.242507,-1.234575 0.507058,-2.469151 0.815703,-3.68168 4.938302,1.058204 9.920697,1.785725 14.96923,2.160503 2.910072,4.122608 6.106741,8.068835 9.52387,11.772562 -0.705472,0.683427 -1.410944,1.344806 -2.116415,1.962098 z m 5.401268,-5.357176 c -2.248692,-2.425064 -4.497383,-5.114675 -6.679936,-8.0027 2.116415,0.08818 4.298969,0.132277 6.503568,0.132277 2.270738,0 4.497383,-0.04408 6.701983,-0.154324 -2.028232,2.799842 -4.210786,5.467406 -6.525615,8.024747 z m 28.814116,6.613799 c -0.198412,2.689611 -1.52117,5.20285 -3.637592,6.900393 -3.505308,2.028232 -10.978901,-0.617284 -19.047737,-7.539732 -0.925932,-0.793656 -1.851864,-1.653448 -2.799841,-2.535287 3.373037,-3.725775 6.481522,-7.672009 9.303412,-11.816657 5.048528,-0.418872 10.075014,-1.190481 15.035365,-2.314827 0.220459,0.903886 0.418872,1.807772 0.595244,2.689611 1.080251,4.76194 1.256623,9.722283 0.551149,14.616499 z m 4.01237,-23.699452 c -0.617285,0.198412 -1.234576,0.396832 -1.873908,0.573197 -1.543218,-4.806026 -3.439173,-9.501822 -5.62173,-14.065346 2.116415,-4.497383 3.90214,-9.127042 5.40127,-13.866931 1.146394,0.33069 2.248692,0.683426 3.306896,1.036163 10.273441,3.527358 17.482471,8.774305 17.482471,12.786676 0,4.321013 -7.69405,9.898648 -18.694999,13.536241 z M 56.437747,59.47734 c 5.577637,0 10.097066,-4.519431 10.097066,-10.097069 0,-5.577636 -4.519429,-10.097065 -10.097066,-10.097065 -5.577637,0 -10.097066,4.519429 -10.097066,10.097065 0,5.577638 4.519429,10.097069 10.097066,10.097069 z"
     id="path21"
     style="fill:#6c757d;stroke-width:0.00944636;fill-opacity:1" />
</svg>
