<?xml version="1.0" encoding="UTF-8" standalone="no"?>
<svg
   width="24"
   height="24"
   viewBox="0 0 100 100"
   version="1.1"
   id="svg22"
   sodipodi:docname="twitter.svg"
   inkscape:version="1.2 (56b05e47e7, 2022-06-09, custom)"
   xmlns:inkscape="http://www.inkscape.org/namespaces/inkscape"
   xmlns:sodipodi="http://sodipodi.sourceforge.net/DTD/sodipodi-0.dtd"
   xmlns="http://www.w3.org/2000/svg"
   xmlns:svg="http://www.w3.org/2000/svg">
  <defs
     id="defs26" />
  <sodipodi:namedview
     id="namedview24"
     pagecolor="#ffffff"
     bordercolor="#000000"
     borderopacity="0.25"
     inkscape:showpageshadow="2"
     inkscape:pageopacity="0.0"
     inkscape:pagecheckerboard="0"
     inkscape:deskcolor="#d1d1d1"
     showgrid="false"
     inkscape:zoom="24.041631"
     inkscape:cx="23.001768"
     inkscape:cy="12.790314"
     inkscape:window-width="1866"
     inkscape:window-height="1016"
     inkscape:window-x="54"
     inkscape:window-y="27"
     inkscape:window-maximized="1"
     inkscape:current-layer="svg22" />
  <path
     fill="#ffffff"
     d="m 89.179541,20.747554 c 0.06285,0.879461 0.06285,1.759115 0.06285,2.638574 0,26.824712 -20.416909,57.733076 -57.733077,57.733076 -11.496414,0 -22.1760232,-3.329691 -31.15955562,-9.109031 1.63342222,0.188345 3.20380482,0.251191 4.90007342,0.251191 9.4859162,0 18.2182572,-3.203805 25.1914832,-8.669301 -8.920686,-0.188538 -16.39649,-6.03092 -18.972218,-14.072144 1.256538,0.188345 2.512882,0.314037 3.832266,0.314037 1.821768,0 3.643729,-0.251384 5.339805,-0.690921 C 11.343594,47.258228 4.3701747,39.091502 4.3701747,29.228509 v -0.251191 c 2.7012284,1.507729 5.8425733,2.450036 9.1718773,2.575536 C 8.0765562,27.909124 4.4958672,21.689861 4.4958672,14.653788 4.4958672,10.88456 5.500827,7.42937 7.2599418,4.4139105 17.248628,16.726941 32.26308,24.767972 49.099105,25.647626 c -0.314037,-1.507729 -0.502576,-3.078111 -0.502576,-4.648688 0,-11.1823775 9.046379,-20.29140903 20.291409,-20.29140903 5.84238,0 11.119338,2.45003683 14.825913,6.40780333 4.585843,-0.8794608 8.983339,-2.5757293 12.878453,-4.9000735 -1.507923,4.7117281 -4.711728,8.6694952 -8.920686,11.1821842 4.083459,-0.439537 8.041225,-1.570576 11.684761,-3.140959 -2.763688,4.02042 -6.219072,7.601109 -10.176838,10.49107 z"
     id="path20"
     style="fill:#ffffff;stroke-width:0.0429508" />
</svg>
